# xmcd CD database file
#
# Track frame offsets:
#	150
#	12242
#	22877
#	36155
#	46590
#	56305
#	70295
#	81457
#	95970
#	109305
#	115705
#	127895
#	143720
#	158347
#	168322
#	181895
#
# Disc length: 2587 seconds
#
# Revision: 2
# Processed by: cddbd v1.4b41PL1 Copyright (c) Steve Scherf et al.
# Submitted via: Feurio! 1.50.2ß - http://www.feurio.com
#
DISCID=c50a1910
DTITLE=Jankowski Singers - Willst Du Dein Herz Mir Schenken
DYEAR=1900
DGENRE=
TTITLE0=Mädel Ruck Ruck Ruck
TTITLE1=Komm Lieber Mai Und Mache
TTITLE2=Vom Wandern
TTITLE3=Horch, Was Kommt Von Draußen Rein
TTITLE4=Sah Ein Knab Ein Röslein Stehen
TTITLE5=Willst Du Dein Herz Mir Schenken
TTITLE6=In Einem Kühlen Grunde
TTITLE7=Annchen Von Tharau
TTITLE8=O Mio Amor
TTITLE9=Tanzen Und Springen
TTITLE10=Schaffe, Schaffe, Häusle Baue
TTITLE11=Sonnenschein
TTITLE12=Es Dunkelt Schon In der Heide
TTITLE13=Das Lieben Bringt Groß Freud
TTITLE14=Der Mond Ist Aufgegangen
TTITLE15=Ave Maria
EXTD=
EXTT0=
EXTT1=
EXTT2=
EXTT3=
EXTT4=
EXTT5=
EXTT6=
EXTT7=
EXTT8=
EXTT9=
EXTT10=
EXTT11=
EXTT12=
EXTT13=
EXTT14=
EXTT15=
PLAYORDER=
